HIERARCHY
ROOT Hips
{
	OFFSET 0.000000 89.005402 0.000000
	CHANNELS 6 Xposition Yposition Zposition Xrotation Yrotation Zrotation
	JOINT Spine
	{
		OFFSET 0.116900 10.681000 0.373400
		CHANNELS 3 Xrotation Yrotation Zrotation
		JOINT Spine1
		{
			OFFSET 0.000000 13.840401 0.053500
			CHANNELS 3 Xrotation Yrotation Zrotation
			JOINT Spine2
			{
				OFFSET 0.000000 14.712700 -0.366200
				CHANNELS 3 Xrotation Yrotation Zrotation
				JOINT Neck
				{
					OFFSET 0.000000 35.415497 -3.314200
					CHANNELS 3 Xrotation Yrotation Zrotation
					JOINT Head
					{
						OFFSET 0.000000 16.899200 1.218300
						CHANNELS 3 Xrotation Yrotation Zrotation
						JOINT HeadTop_End
						{
							OFFSET 0.000000 22.206207 2.192500
							CHANNELS 3 Xrotation Yrotation Zrotation
							End Site
							{
								OFFSET 0.000000 22.314178 0.000000
							}
						}
					}
				}
				JOINT LeftShoulder
				{
					OFFSET 12.896400 26.716293 -4.548400
					CHANNELS 3 Xrotation Yrotation Zrotation
					JOINT LeftArm
					{
						OFFSET 19.027000 -4.857010 -1.718400
						CHANNELS 3 Xrotation Yrotation Zrotation
						JOINT LeftForeArm
						{
							OFFSET 24.179897 0.000000 0.000000
							CHANNELS 3 Xrotation Yrotation Zrotation
							JOINT LeftHand
							{
								OFFSET 27.156403 0.000000 0.000000
								CHANNELS 3 Xrotation Yrotation Zrotation
								JOINT LeftHandIndex1
								{
									OFFSET 16.441200 0.000000 0.000000
									CHANNELS 3 Xrotation Yrotation Zrotation
									JOINT LeftHandIndex2
									{
										OFFSET 4.821899 0.000000 0.000000
										CHANNELS 3 Xrotation Yrotation Zrotation
										JOINT LeftHandIndex3
										{
											OFFSET 6.386497 0.000000 0.000000
											CHANNELS 3 Xrotation Yrotation Zrotation
											JOINT LeftHandIndex4
											{
												OFFSET 5.188988 0.000000 0.000000
												CHANNELS 3 Xrotation Yrotation Zrotation
												End Site
												{
													OFFSET -0.178703 5.185913 0.000177
												}
											}
										}
									}
								}
								JOINT LeftHandThumb1
								{
									OFFSET 6.534897 -5.032593 5.900300
									CHANNELS 3 Xrotation Yrotation Zrotation
									JOINT LeftHandThumb2
									{
										OFFSET 3.818176 -2.204422 2.204423
										CHANNELS 3 Xrotation Yrotation Zrotation
										JOINT LeftHandThumb3
										{
											OFFSET 3.252098 -1.877594 1.877601
											CHANNELS 3 Xrotation Yrotation Zrotation
											JOINT LeftHandThumb4
											{
												OFFSET 5.251778 -3.032120 3.032117
												CHANNELS 3 Xrotation Yrotation Zrotation
												End Site
												{
													OFFSET 0.000023 6.780014 0.000000
												}
											}
										}
									}
								}
							}
						}
					}
				}
				JOINT RightShoulder
				{
					OFFSET -12.896300 26.716293 -4.548400
					CHANNELS 3 Xrotation Yrotation Zrotation
					JOINT RightArm
					{
						OFFSET -19.027000 -4.857010 -1.718400
						CHANNELS 3 Xrotation Yrotation Zrotation
						JOINT RightForeArm
						{
							OFFSET -24.179897 0.000000 0.000000
							CHANNELS 3 Xrotation Yrotation Zrotation
							JOINT RightHand
							{
								OFFSET -27.156403 0.000000 0.000000
								CHANNELS 3 Xrotation Yrotation Zrotation
								JOINT RightHandThumb1
								{
									OFFSET -6.591202 -4.852203 5.988100
									CHANNELS 3 Xrotation Yrotation Zrotation
									JOINT RightHandThumb2
									{
										OFFSET -3.818176 -2.204422 2.204423
										CHANNELS 3 Xrotation Yrotation Zrotation
										JOINT RightHandThumb3
										{
											OFFSET -3.252098 -1.877594 1.877601
											CHANNELS 3 Xrotation Yrotation Zrotation
											JOINT RightHandThumb4
											{
												OFFSET -5.251778 -3.032120 3.032117
												CHANNELS 3 Xrotation Yrotation Zrotation
												End Site
												{
													OFFSET -0.000023 6.780014 0.000000
												}
											}
										}
									}
								}
								JOINT RightHandIndex1
								{
									OFFSET -16.029404 0.000000 0.000000
									CHANNELS 3 Xrotation Yrotation Zrotation
									JOINT RightHandIndex2
									{
										OFFSET -5.213303 0.000000 0.000000
										CHANNELS 3 Xrotation Yrotation Zrotation
										JOINT RightHandIndex3
										{
											OFFSET -6.386528 0.000000 0.000000
											CHANNELS 3 Xrotation Yrotation Zrotation
											JOINT RightHandIndex4
											{
												OFFSET -5.189026 0.000000 0.000000
												CHANNELS 3 Xrotation Yrotation Zrotation
												End Site
												{
													OFFSET 0.236702 5.183624 0.001972
												}
											}
										}
									}
								}
							}
						}
					}
				}
			}
		}
	}
	JOINT LeftUpLeg
	{
		OFFSET 14.073000 -7.904099 -1.463000
		CHANNELS 3 Xrotation Yrotation Zrotation
		JOINT LeftLeg
		{
			OFFSET -0.109806 -34.073280 4.093200
			CHANNELS 3 Xrotation Yrotation Zrotation
			JOINT LeftFoot
			{
				OFFSET 0.109806 -29.899420 -6.319000
				CHANNELS 3 Xrotation Yrotation Zrotation
				JOINT LeftToeBase
				{
					OFFSET 1.551100 -14.988700 20.535801
					CHANNELS 3 Xrotation Yrotation Zrotation
					JOINT LeftToe_End
					{
						OFFSET 0.221200 0.570800 13.248301
						CHANNELS 3 Xrotation Yrotation Zrotation
						End Site
						{
							OFFSET 0.000000 13.262435 0.000000
						}
					}
				}
			}
		}
	}
	JOINT RightUpLeg
	{
		OFFSET -13.839300 -7.904099 -1.463000
		CHANNELS 3 Xrotation Yrotation Zrotation
		JOINT RightLeg
		{
			OFFSET 0.109694 -34.073219 4.093300
			CHANNELS 3 Xrotation Yrotation Zrotation
			JOINT RightFoot
			{
				OFFSET -0.109694 -29.899384 -6.319200
				CHANNELS 3 Xrotation Yrotation Zrotation
				JOINT RightToeBase
				{
					OFFSET -1.551100 -14.988700 20.535801
					CHANNELS 3 Xrotation Yrotation Zrotation
					JOINT RightToe_End
					{
						OFFSET -0.221200 0.570900 13.248299
						CHANNELS 3 Xrotation Yrotation Zrotation
						End Site
						{
							OFFSET 0.000000 13.262440 0.000000
						}
					}
				}
			}
		}
	}
}
MOTION
Frames: 4
Frame Time: 0.033333
-0.004351 87.069687 2.422053 -4.832025 0.097590 -3.623481 3.202425 1.747350 1.863086 0.802427 0.811138 0.552094 0.774946 0.845923 0.563476 5.528427 0.231180 -2.845655 -12.386692 3.167664 -5.777091 -0.000001 0.000000 -0.000000 0.755929 -16.857742 -14.344946 4.136520 -10.335802 -63.573290 0.000001 0.000002 0.000007 -32.144400 -2.135767 -4.935259 0.319046 -0.521366 -8.832859 0.268949 1.756344 -17.411064 0.058176 0.824454 -8.072515 -0.000000 0.000000 0.000000 -0.064860 3.189179 4.912381 11.707771 25.369124 17.517813 -13.896918 3.620230 9.294314 0.000001 -0.000000 0.000002 1.328880 13.762243 14.018695 14.513961 15.130783 61.086562 -0.000000 5.291737 0.000010 -21.089263 1.501009 2.320372 -4.440334 2.702578 -3.887836 14.077477 -30.024176 -12.345236 -14.641188 -2.893184 -9.549604 0.000001 -0.000001 -0.000001 0.369367 0.484690 5.237828 0.170217 -1.248859 15.522221 0.026924 -0.500584 6.156925 0.000001 0.000000 -0.000001 -11.929147 14.896282 11.675122 17.847301 -3.847078 5.021781 -2.642263 0.707828 -8.043791 -5.008776 -0.000000 0.000003 0.000001 0.000000 0.000000 7.434245 -9.695337 4.887971 6.214829 -9.802365 -4.788538 -7.357402 -7.528736 5.169148 -7.452975 -0.000007 -0.000001 0.000001 -0.000000 0.000000 
0.049073 87.090485 2.291939 -4.666381 -0.811144 -3.576752 3.238245 1.697526 1.945107 0.891028 0.706418 0.732082 0.863953 0.739624 0.741902 5.904580 0.264519 -2.487536 -12.068055 3.412381 -5.199481 -0.000000 -0.000000 0.000000 0.789687 -17.082643 -14.120483 3.978759 -10.561171 -64.467219 -0.000003 0.000001 0.000004 -31.955149 -2.048172 -4.735635 0.274231 -0.578635 -8.703768 0.268924 1.756246 -17.410022 0.058162 0.824363 -8.071632 0.000000 -0.000000 0.000003 -0.194490 3.014695 4.917647 11.721591 25.372780 17.472525 -13.886660 3.609562 9.262049 0.000002 -0.000001 0.000005 1.318359 13.846921 14.081430 13.265619 13.149515 61.451943 -0.000002 3.792504 0.000015 -22.069400 0.759875 3.216751 -4.613613 2.283897 -4.098010 13.940775 -30.010912 -12.726037 -14.762781 -2.972359 -10.015187 0.000000 0.000001 -0.000002 0.392264 0.318893 5.538574 0.171149 -1.252217 15.564895 0.027275 -0.503836 6.197210 -0.000001 -0.000000 0.000001 -11.817489 14.874202 11.663333 17.625167 -2.942113 4.871086 -2.562366 0.738553 -8.150212 -4.986553 -0.000001 -0.000003 -0.000001 -0.000000 0.000000 6.748617 -9.777870 4.420507 6.592867 -9.785349 -4.505781 -7.309982 -6.599759 5.147229 -7.437615 0.000008 0.000002 0.000000 -0.000002 0.000000 
0.091066 87.121590 2.175386 -4.543305 -1.708959 -3.549634 3.273602 1.663993 2.014268 0.973873 0.635403 0.883346 0.947154 0.667308 0.892031 6.284965 0.287202 -2.082092 -11.401425 3.563557 -4.555286 0.000000 -0.000000 0.000000 0.820914 -17.155349 -13.913963 3.996349 -11.317154 -65.137936 -0.000003 -0.000001 0.000003 -31.981282 -2.002881 -4.704596 0.249622 -0.626223 -8.522690 0.268847 1.756011 -17.407627 0.058131 0.824126 -8.069285 -0.000000 0.000000 -0.000001 -0.235672 2.852941 4.864224 11.737563 25.379089 17.419539 -13.877583 3.599446 9.232972 0.000003 0.000002 0.000001 1.294843 13.968725 14.219349 11.838372 12.953433 61.968128 -0.000004 2.352935 0.000003 -22.011644 -0.052341 3.452002 -4.736547 1.864479 -4.147182 13.687627 -29.982440 -13.425913 -14.992912 -3.123691 -10.867308 -0.000003 -0.000001 0.000000 0.444985 -0.022388 6.155590 0.172158 -1.255837 15.611002 0.027633 -0.507135 6.237880 -0.000000 -0.000002 0.000000 -11.647804 14.879471 11.688825 17.371787 -2.073874 4.724146 -2.470575 0.768547 -8.278722 -4.963068 -0.000009 -0.000003 -0.000000 -0.000001 0.000000 6.171100 -9.832477 4.025967 6.847937 -9.772044 -4.267671 -7.193481 -5.691081 5.118140 -7.424417 0.000002 -0.000000 0.000000 0.000000 -0.000000 
0.121001 87.157677 2.071605 -4.452386 -2.515285 -3.545577 3.304958 1.636286 2.078506 1.045600 0.576313 1.018050 1.019187 0.606953 1.025788 6.643896 0.302827 -1.692166 -10.511909 3.578652 -3.789761 -0.000000 -0.000000 0.000000 0.851963 -17.173269 -13.707722 4.133192 -12.414042 -65.655193 -0.000002 0.000002 0.000001 -32.127666 -1.908227 -4.928027 0.182071 -0.697201 -8.441175 0.268769 1.755761 -17.405082 0.058094 0.823878 -8.066837 0.000000 -0.000000 0.000000 -0.345688 2.679778 4.856022 11.757091 25.386823 17.354805 -13.870365 3.590264 9.209031 0.000000 -0.000000 0.000001 1.258077 14.123930 14.431710 10.648051 13.209520 62.776979 -0.000006 1.524246 0.000008 -21.109086 -0.435194 2.801994 -4.640708 1.695840 -4.118461 13.564301 -29.965758 -13.766871 -15.101664 -3.197297 -11.253251 -0.000002 -0.000000 -0.000001 0.449230 -0.079127 6.346855 0.173372 -1.260175 15.666386 0.028116 -0.511545 6.292305 0.000000 -0.000000 0.000001 -11.459960 14.896875 11.730278 17.106800 -1.309311 4.604626 -2.381148 0.795302 -8.392700 -4.951581 0.000006 0.000002 -0.000000 -0.000000 0.000000 5.730328 -9.855686 3.729115 6.957499 -9.762398 -4.070257 -7.027890 -4.882857 5.071359 -7.414041 -0.000013 -0.000001 0.000001 -0.000001 -0.000000 
